<svg xmlns="http://www.w3.org/2000/svg" fill="none" viewBox="0 0 718 233" aria-hidden="true" width="100" height="30" class="sm:w-24 sm:h-[30px] w-24 h-[30px]">
  <g fill="#333" clip-path="url(#gmi-cloud-logo_component_svg__a)">
    <path d="M123.292 132.486h-33.1c-2.644 0-4.808-2.395-4.808-5.363v-21.436c0-2.95 2.148-5.363 4.809-5.363h33.099c2.645 0 4.808-2.395 4.808-5.363V73.525c0-2.95 2.147-5.363 4.808-5.363h33.099c2.646 0 4.809-2.395 4.809-5.363V41.363c0-2.95-2.148-5.363-4.809-5.363H90.208c-2.645 0-4.808 2.395-4.808 5.363V62.8c0 2.95-2.147 5.363-4.808 5.363h-33.1c-2.645 0-4.808 2.395-4.808 5.363v21.436c0 2.95-2.147 5.363-4.808 5.363H4.808c-2.645 0-4.808 2.395-4.808 5.363v21.436c0 2.95 2.147 5.363 4.808 5.363h33.1c2.645 0 4.808 2.395 4.808 5.363v21.436c0 2.95 2.147 5.363 4.808 5.363h33.099c2.645 0 4.808 2.395 4.808 5.363v21.436c0 2.95 2.148 5.363 4.809 5.363h75.798c2.646 0 4.809-2.395 4.809-5.363v-21.436c0-2.95-2.148-5.363-4.809-5.363H132.94c-2.646 0-4.809-2.395-4.809-5.363v-21.436c0-2.95-2.147-5.363-4.808-5.363z"></path>
    <path d="M251.408 100.341c2.646 0 4.809 2.395 4.809 5.363v21.436c0 2.95-2.148 5.363-4.809 5.363H218.31c-2.646 0-4.809 2.395-4.809 5.363v21.436c0 2.95-2.147 5.363-4.808 5.363h-33.099c-2.645 0-4.808-2.395-4.808-5.363v-53.58c0-2.951 2.147-5.364 4.808-5.364h75.799zM510.68 40.105h-28.795v153.33h28.795zM717.43 40.105h-28.795v153.33h28.795z"></path>
    <path d="M532.41 40.105h-28.83l35.391 153.33H567.8zM653.242 40.105h-28.795v153.33h28.795z"></path>
    <path d="M596.594 193.435h-28.795l35.39-153.33h28.795zM452.028 114.062v27.042s-.139.174-.191.261h-83.069V114.08h83.295-.035z"></path>
    <path d="M452.028 141.347v35.651c-17.479 12.306-39.834 19.769-62.953 19.769-59.673 0-97.858-35.981-97.858-80.362s34.54-80.362 97.858-80.362c22.511 0 45.127 7.689 62.953 20.36v35.685c-13.105-16.42-37.856-28.743-62.953-28.743-44.052 0-70.695 20.846-70.695 53.077 0 32.232 28.691 53.077 70.695 53.077 25.323 0 49.727-11.906 62.744-28.1h.191v-.035z"></path>
  </g>
  <defs>
    <clipPath id="gmi-cloud-logo_component_svg__a">
      <path fill="#fff" d="M0 0h717.43v232.81H0z"></path>
    </clipPath>
  </defs>
</svg>